<mxfile host="app.diagrams.net" modified="2023-12-04T17:38:03.466Z" agent="Mozilla/5.0 (Macintosh; Intel Mac OS X 10.15; rv:121.0) Gecko/20100101 Firefox/121.0" etag="bCr3lkZiuZ9DGmDPd85h" version="22.1.5" type="google">
  <diagram name="Page-1" id="Ghp6A-FbYfa9RMJrXr75">
    <mxGraphModel grid="0" page="1" gridSize="10" guides="1" tooltips="1" connect="1" arrows="1" fold="1" pageScale="1" pageWidth="1169" pageHeight="826" math="0" shadow="0">
      <root>
        <mxCell id="0" />
        <mxCell id="1" parent="0" />
        <mxCell id="fthugQ9C_CTFsDHpsznY-1" value="mf-2" style="rounded=0;whiteSpace=wrap;html=1;labelBackgroundColor=none;fillColor=#09555B;strokeColor=#BAC8D3;fontColor=#EEEEEE;" vertex="1" parent="1">
          <mxGeometry x="560" y="160" width="120" height="60" as="geometry" />
        </mxCell>
        <mxCell id="fthugQ9C_CTFsDHpsznY-2" value="mf-1" style="rounded=0;whiteSpace=wrap;html=1;labelBackgroundColor=none;fillColor=#09555B;strokeColor=#BAC8D3;fontColor=#EEEEEE;" vertex="1" parent="1">
          <mxGeometry x="400" y="160" width="120" height="60" as="geometry" />
        </mxCell>
        <mxCell id="fthugQ9C_CTFsDHpsznY-3" value="mf-n" style="rounded=0;whiteSpace=wrap;html=1;labelBackgroundColor=none;fillColor=#09555B;strokeColor=#BAC8D3;fontColor=#EEEEEE;" vertex="1" parent="1">
          <mxGeometry x="720" y="160" width="120" height="60" as="geometry" />
        </mxCell>
        <mxCell id="fthugQ9C_CTFsDHpsznY-4" value="Navbar" style="rounded=0;whiteSpace=wrap;html=1;strokeColor=#BAC8D3;fontColor=#EEEEEE;fillColor=#09555B;" vertex="1" parent="1">
          <mxGeometry x="80" y="160" width="120" height="60" as="geometry" />
        </mxCell>
        <mxCell id="fthugQ9C_CTFsDHpsznY-5" value="Conainer" style="rounded=0;whiteSpace=wrap;html=1;strokeColor=#BAC8D3;fontColor=#EEEEEE;fillColor=#09555B;" vertex="1" parent="1">
          <mxGeometry x="240" y="160" width="120" height="60" as="geometry" />
        </mxCell>
      </root>
    </mxGraphModel>
  </diagram>
</mxfile>
